PathFileType	4	(X/Y/Z)	OpenSim_Sub08_EMGBaseline_Gyro.trc
DataRate	CameraRate	NumFrames	NumMarkers	Units	OrigDataRate	OrigDataStartFrame	OrigNumFrames
100	100	30	8	m	100	1664	6654
Frame#	Time	torso_imu_offset_imu	pelvis_imu_offset_imu	tibia_r_imu_offset_imu	femur_r_imu_offset_imu	tibia_l_imu_offset_imu	femur_l_imu_offset_imu	toes_r_imu_offset_imu	toes_l_imu_offset_imu
				X1	Y1	Z1	X2	Y2	Z2	X3	Y3	Z3	X4	Y4	Z4	X5	Y5	Z5	X6	Y6	Z6	X7	Y7	Z7	X8		Y8	Z8	

1664	16.63000000	0.26333448	-0.03815822	0.02201484	0.14778605	0.04063419	-0.04714088	0.92472648	1.03382716	2.75384186	-1.00518368	0.58446909	-0.29865202	0.10064393	-0.08753081	0.74087297	0.39612158	-0.22496592	0.72389479	-0.25892889	2.49863011	3.87021313	0.02097253	-0.08680145	0.23745342
1665	16.64000000	0.26509682	-0.01869059	0.03202142	0.14615369	0.06070746	-0.01734937	0.81799782	1.05355389	2.63013272	-0.92575119	0.59251459	-0.35246892	0.17276790	-0.07845733	0.75853809	0.28428917	-0.22129819	0.72840032	0.04777407	2.23218622	3.87425127	0.05555816	-0.10238821	0.20792989
1666	16.65000000	0.25534788	-0.00816122	0.03122180	0.15239947	0.10727563	0.00937436	0.93319290	0.99164660	2.57024201	-0.81595089	0.57350743	-0.41965941	0.22953535	-0.06200285	0.80480181	0.22378603	-0.20965050	0.72183329	0.30252715	1.98109684	3.74173440	-0.00072680	-0.13995985	0.16693814
1667	16.66000000	0.23423603	0.00551211	0.02288142	0.14543571	0.15454780	0.03042663	1.14597496	0.95972879	2.35435776	-0.70649915	0.53763060	-0.48961697	0.24992553	-0.05142989	0.83933541	0.20019348	-0.18611611	0.74220989	0.32636540	1.76332750	3.43410567	0.09623113	-0.14783880	0.10797511
1668	16.67000000	0.21156352	0.02232662	0.02322961	0.15729556	0.18368537	0.04077365	1.19490127	0.90016953	1.94860968	-0.56737295	0.50905292	-0.54485631	0.25710363	-0.03161446	0.84798534	0.15522890	-0.15925616	0.75871527	0.27368492	1.50643636	2.90911692	0.16188181	-0.22638885	0.11258237
1669	16.68000000	0.19858946	0.03433972	0.01866459	0.18460391	0.21022832	0.05446024	1.11468313	0.76023928	1.49309350	-0.39681786	0.47412627	-0.55587221	0.26360224	-0.05610952	0.84348496	0.12880151	-0.12800171	0.75902927	0.33939205	1.20736146	2.26063244	0.06463042	-0.28344816	0.14323133
1670	16.69000000	0.18656826	0.04820886	0.00567984	0.18796763	0.22176467	0.07185412	1.22924811	0.59683049	1.08083193	-0.21674674	0.42350369	-0.53234733	0.25041083	-0.03140715	0.88071944	0.16488431	-0.11081583	0.73798888	0.13867143	0.86625585	1.62565596	0.08913954	-0.31938807	0.09078522
1671	16.70000000	0.17645540	0.06025600	-0.00087264	0.18053317	0.20648455	0.09649359	1.14567632	0.38788079	0.74092142	-0.06215537	0.35609830	-0.48318351	0.21528354	0.02871944	0.97069141	0.25506870	-0.07965207	0.70969682	-0.27251231	0.57951356	1.05613029	0.17031705	-0.36724534	0.03710147
1672	16.71000000	0.16239926	0.07230972	-0.00944694	0.15408965	0.18368189	0.13222237	0.69225909	0.18177539	0.35862810	0.06600622	0.27956536	-0.41290381	0.15920170	0.02200562	1.01908164	0.30160385	-0.02246078	0.68193775	-0.58395181	0.33884220	0.55274411	0.10639191	-0.42786776	0.01717936
1673	16.72000000	0.15477770	0.08346738	-0.02010372	0.12031543	0.17259925	0.17336290	0.16354652	0.00408911	-0.07791531	0.21725584	0.20502933	-0.29629789	0.10586194	0.02849313	1.02303773	0.28788160	0.01444325	0.65660683	-0.68730316	0.07638392	0.09532575	0.16385473	-0.48312150	-0.03634460
1674	16.73000000	0.14228156	0.08972281	-0.03338004	0.08714511	0.14946971	0.21034890	-0.36519163	-0.17572993	-0.42930520	0.39604092	0.10797790	-0.14591294	0.10781820	0.05582729	1.08930086	0.28927564	0.03954704	0.63111831	-0.61944331	-0.24680413	-0.29478809	0.22416192	-0.55873915	-0.08386880
1675	16.74000000	0.13656482	0.09675556	-0.04599848	0.07429781	0.09924112	0.24775455	-0.75452051	-0.36394628	-0.68652200	0.55885083	-0.03115828	-0.02001651	0.18920482	0.05655189	1.18261433	0.29209232	0.07084716	0.59064725	-0.50536185	-0.42176114	-0.55381462	0.24500955	-0.62997729	-0.09612073
1676	16.75000000	0.13836622	0.10579508	-0.05928897	0.08814003	0.04949185	0.27220774	-0.88609845	-0.53261202	-0.95300810	0.71205030	-0.20416236	0.03129570	0.28495810	0.05484119	1.23915878	0.30174479	0.08818702	0.58073387	-0.30034641	-1.00921458	-0.88342537	0.22794307	-0.70775443	-0.09187365
1677	16.76000000	0.13270000	0.11728650	-0.07083133	0.11847370	0.02155215	0.28970789	-0.80495531	-0.68676451	-1.25535795	0.85754699	-0.40977940	-0.01156136	0.37890371	0.06881175	1.26793842	0.32599803	0.09073702	0.57683308	-0.45202389	-1.04481572	-1.12027279	0.26596347	-0.84069599	-0.10674963
1678	16.77000000	0.13413511	0.13460888	-0.08529115	0.16590835	0.02218454	0.30562856	-0.59637404	-0.87300704	-1.50874902	0.98067947	-0.62671238	-0.14342843	0.45551297	0.07480095	1.30811111	0.36690523	0.11370382	0.56814660	-0.80745531	-1.26849957	-1.06904392	0.29821431	-0.94699531	-0.14423227
1679	16.78000000	0.13898905	0.14096349	-0.09703152	0.19756846	0.05112420	0.32815357	-0.63194497	-1.00469069	-1.44374315	1.11134705	-0.78892835	-0.33108865	0.48168743	0.09444045	1.39914749	0.44821578	0.14962761	0.55539796	-0.25658412	-2.02062364	-1.15235149	0.30797461	-1.07931145	-0.16032926
1680	16.79000000	0.14912399	0.14718104	-0.10622719	0.16072577	0.06946964	0.36682389	-1.23099997	-0.79959034	-0.65403451	1.22076652	-0.86769371	-0.49819924	0.47336373	0.11770673	1.49091911	0.52170390	0.17828879	0.52416303	0.53169226	-1.80779424	-1.23527317	0.37777829	-1.24526108	-0.16149366
1681	16.80000000	0.15864894	0.16540586	-0.10454784	0.01474120	0.02757667	0.41642432	-0.81483296	-0.43347961	0.30186041	1.17729746	-0.84202958	-0.67635827	0.46369424	0.13133969	1.54264243	0.55275976	0.20250896	0.49539977	0.24640709	-2.80218327	-0.84510833	0.38649119	-1.45897608	-0.12180749
1682	16.81000000	0.15999357	0.20390001	-0.10357566	-0.18268709	-0.06987019	0.46646639	1.01815772	-0.38322516	0.27274485	0.92152198	-0.67819270	-0.83869458	0.47705993	0.12895052	1.57386335	0.55270630	0.24575808	0.48296026	0.01077841	-2.46901698	-0.17668299	0.43043847	-1.66217873	-0.01726339
1683	16.82000000	0.13985446	0.24020551	-0.10626582	-0.36654501	-0.17551584	0.51190056	1.57310293	-0.59383825	-0.58587683	0.56154105	-0.48878181	-0.86772262	0.53548141	0.12556009	1.63386142	0.52132240	0.28389841	0.46853294	1.09446459	-2.16193099	-0.29133989	0.44344832	-1.90051011	0.11062855
1684	16.83000000	0.11471874	0.24711931	-0.10579966	-0.53938084	-0.28131013	0.53148674	1.05287398	-0.83351408	-1.27771026	0.26383287	-0.34104254	-0.81657399	0.61943768	0.12507908	1.74958076	0.45159875	0.31376501	0.42622218	1.03567291	-2.30795901	-0.57153932	0.43636462	-2.16396516	0.17837495
1685	16.84000000	0.08489883	0.24823431	-0.10626924	-0.65368969	-0.40456707	0.52749237	1.28255676	-0.78710661	-1.25192558	0.05527188	-0.14182298	-0.72423761	0.69274739	0.11066884	1.85285829	0.37195337	0.36172172	0.36434828	0.03758846	-2.29971561	-0.58850090	0.40787679	-2.43224556	0.20398728
1686	16.85000000	0.05717594	0.26494744	-0.11016932	-0.70197265	-0.51214630	0.51792307	2.17828249	-0.59340576	-0.93352097	-0.09997537	0.07704884	-0.51772634	0.72145538	0.08941044	1.91537820	0.27533953	0.41159359	0.27294070	-0.08148732	-2.12477334	-0.61810232	0.25748226	-2.75847591	0.23236767
1687	16.86000000	0.03769679	0.28554129	-0.11456282	-0.69656266	-0.53986846	0.48661912	2.44339546	-0.53389042	-0.83822138	-0.23129473	0.09914419	-0.28312367	0.69768343	0.06891165	1.98785148	0.20125585	0.46118623	0.16030166	-0.25389068	-2.03812481	-0.46963230	0.05904144	-3.09943340	0.22255047
1688	16.87000000	0.00928020	0.31689536	-0.12777955	-0.65092240	-0.48785545	0.45881511	1.57331827	-0.54227009	-0.93981102	-0.34945722	-0.13197575	-0.20705069	0.68952303	0.02963887	2.09822400	0.15666383	0.50891762	0.01880885	-0.27961962	-1.94695606	-0.32906651	-0.10522224	-3.44667586	0.18413492
1689	16.88000000	-0.01237770	0.35170928	-0.15545619	-0.55960271	-0.40333187	0.42619144	0.41190537	-0.65117763	-1.08007027	-0.39347302	-0.39149048	-0.29674166	0.71095688	-0.01627809	2.21759721	0.13320542	0.55340161	-0.14432401	-0.01292420	-1.82876252	-0.26231934	-0.29974834	-3.83743913	0.13231763
1690	16.89000000	-0.02260278	0.37790623	-0.17174879	-0.45144422	-0.29710751	0.37889449	-0.20007718	-0.83333217	-1.11018110	-0.34926727	-0.54089530	-0.45075559	0.79518125	-0.09991826	2.31298788	0.13445418	0.60275744	-0.30689595	-0.02214187	-1.74950821	-0.12046252	-0.54433063	-4.30762105	0.03729574
1691	16.90000000	-0.01274797	0.39687896	-0.18911752	-0.31140719	-0.22768271	0.31854884	-0.34509874	-0.88588063	-0.98092890	-0.29727974	-0.61267807	-0.55531859	1.10963459	-0.15694517	2.40034191	0.07585974	0.68189276	-0.47580732	0.00740746	-1.61101112	-0.07041770	-0.46928432	-4.74836124	-0.11880734
1692	16.91000000	0.00455988	0.41464866	-0.21438493	-0.14756510	-0.19262214	0.26548927	-0.48241714	-0.81758325	-0.83853626	-0.28088703	-0.59580019	-0.60179707	1.55438931	-0.10776738	2.53632957	-0.07081286	0.74362795	-0.63414767	-0.00018624	-1.54228561	-0.12299117	-0.13917078	-5.15374241	-0.17876524
1693	16.92000000	0.01491315	0.41644752	-0.23515144	0.03362386	-0.13894925	0.23685129	-0.64502702	-0.79060501	-0.81688741	-0.25174192	-0.45204719	-0.59551831	1.74532358	-0.07287479	2.66744471	-0.18014646	0.74602246	-0.80771173	-0.27880583	-1.66361817	-0.09380626	-0.12360962	-5.42125673	-0.00391220
